<?xml version="1.0" standalone="no"?><!DOCTYPE svg PUBLIC "-//W3C//DTD SVG 1.1//EN" "http://www.w3.org/Graphics/SVG/1.1/DTD/svg11.dtd"><svg t="1568625823945" class="icon" viewBox="0 0 1026 1024" version="1.1" xmlns="http://www.w3.org/2000/svg" p-id="11822" xmlns:xlink="http://www.w3.org/1999/xlink" width="200.390625" height="200"><defs><style type="text/css"></style></defs><path d="M821.607641 403.279941c-7.52388-9.028655-16.552535-13.542983-28.590742-16.552535-4.514328-1.504776-21.819251-3.009552-62.4482-3.009551h-27.085966l-35.362233 255.811903h48.152828c9.028655 0 16.552535 2.257164 24.076415 3.009551 9.781043 0.752388 17.304923 3.009552 22.571638 2.257164l7.52388-1.504776c9.781043-2.257164 17.304923-4.514328 23.324026-9.781043 8.276267-7.52388 16.552535-20.314475 24.076415-38.371786 7.52388-18.809699 13.542983-45.143277 18.05731-78.248346 4.514328-33.10507 5.266716-57.933872 2.257164-75.238795-4.514328-17.304923-9.781043-29.34313-16.552535-38.371786z" p-id="11823" fill="#e6e6e6"></path><path d="M514.633358 0C231.735489 0 3.009552 229.478325 3.009552 511.623806s229.478325 511.623806 511.623806 511.623806 511.623806-229.478325 511.623806-511.623806S797.531227 0 514.633358 0z m-14.295371 744.864071H405.537105l-21.066863-105.334313h-142.95371L195.620867 744.864071H88.781778l221.202057-466.480529h98.562822l104.581925 466.480529h-12.790595z m410.80382-126.401176c-14.295371 33.10507-33.10507 60.191036-54.92432 80.505511-16.552535 15.800147-37.619398 27.838354-63.952976 36.867009-18.057311 6.019104-41.381337 9.028655-75.238795 9.028656H555.262307l60.191036-466.480529h154.23953c33.857458 0 58.68626 6.771492 77.495959 12.790595 21.066863 7.52388 41.381337 23.324026 59.438648 48.152828 15.047759 20.314475 24.828802 45.895665 30.095518 75.238795 5.266716 29.34313 5.266716 64.705364-0.752388 106.839089-4.514328 37.619398-13.542983 70.724467-24.828803 97.058046z" p-id="11824" fill="#e6e6e6"></path><path d="M285.155033 556.767083h79.000735l-24.076415-120.382072z" p-id="11825" fill="#e6e6e6"></path></svg>