<?xml version="1.0" standalone="no"?><!DOCTYPE svg PUBLIC "-//W3C//DTD SVG 1.1//EN" "http://www.w3.org/Graphics/SVG/1.1/DTD/svg11.dtd"><svg t="1568625711254" class="icon" viewBox="0 0 1024 1024" version="1.1" xmlns="http://www.w3.org/2000/svg" p-id="9675" xmlns:xlink="http://www.w3.org/1999/xlink" width="200" height="200"><defs><style type="text/css"></style></defs><path d="M312.5 712h1.3c-0.4-0.4-0.9-0.8-1.3-1.3v1.3z" p-id="9676" fill="#e6e6e6"></path><path d="M936.2 0.1H87.7C39.5 0.1 0 39.6 0 87.8v848.5c0 48.2 39.5 87.7 87.7 87.7h848.5c48.2 0 87.7-39.5 87.7-87.7V87.8c0-48.2-39.5-87.7-87.7-87.7zM259.6 357.6H218v307h41.6v33.3H218c-18.4 0-33.3-14.9-33.3-33.3v-307c0-18.4 14.9-33.3 33.3-33.3h41.6v33.3zM745.7 712c0 18.4-14.9 33.3-33.3 33.3H312.5c-18.4 0-33.3-14.9-33.3-33.3V312.1c0-18.4 14.9-33.3 33.3-33.3h399.8c18.4 0 33.3 14.9 33.3 33.3V712z m93.5-47.2c0 18.4-14.9 33.3-33.3 33.3h-41.6v-33.3h41.6v-307h-41.6v-33.3h41.6c18.4 0 33.3 14.9 33.3 33.3v307z" p-id="9677" fill="#e6e6e6"></path><path d="M312.5 647.4l14.4-16.5 96-88.9 96 88.9 64-55.5L712.4 712V312.1H312.5v335.3z m294.4-261.1c34.4 0 62.3 27.9 62.3 62.4 0 34.4-27.9 62.4-62.3 62.4s-62.3-28-62.3-62.4c0-34.5 27.8-62.4 62.3-62.4z" p-id="9678" fill="#e6e6e6"></path></svg>