<?xml version="1.0" standalone="no"?><!DOCTYPE svg PUBLIC "-//W3C//DTD SVG 1.1//EN" "http://www.w3.org/Graphics/SVG/1.1/DTD/svg11.dtd"><svg t="1568951192328" class="icon" viewBox="0 0 1390 1024" version="1.1" xmlns="http://www.w3.org/2000/svg" p-id="4667" xmlns:xlink="http://www.w3.org/1999/xlink" width="271.484375" height="200"><defs><style type="text/css"></style></defs><path d="M1367.51 286.136L708.01 2.618a31.642 31.642 0 0 0-25.204 0L23.141 286.136a42.907 42.907 0 0 0 0 76.162l659.464 283.506a31.442 31.442 0 0 0 25.204 0l512.766-220.534v225.598a97.315 97.315 0 0 0 0 166.05v79.15h67.51v-79.012a97.315 97.315 0 0 0 0-166.126V396.316l79.238-34.093a42.907 42.907 0 0 0 0-76.162zM695.358 702.813a74.261 74.261 0 0 1-29.504-6.126L254.764 519.835V763.96c0 200.03 299.834 260.04 393.536 260.04h94.014c70.186 0 393.61-60.01 393.61-260.04V519.835L724.788 696.837a73.924 73.924 0 0 1-29.417 6.139z m0 0" p-id="4668" fill="#e6e6e6"></path></svg>