<?xml version="1.0" standalone="no"?><!DOCTYPE svg PUBLIC "-//W3C//DTD SVG 1.1//EN" "http://www.w3.org/Graphics/SVG/1.1/DTD/svg11.dtd"><svg t="1568617217011" class="icon" viewBox="0 0 1024 1024" version="1.1" xmlns="http://www.w3.org/2000/svg" p-id="6442" xmlns:xlink="http://www.w3.org/1999/xlink" width="200" height="200"><defs><style type="text/css"></style></defs><path d="M92.16 602.624v320.512c0 50.688 41.984 90.624 92.16 90.624h279.04v-457.728H138.24c-24.064 0-46.08 23.552-46.08 46.592z m929.792-250.88c0-23.04-24.064-46.592-46.08-46.592H839.68c52.736-35.84 92.16-90.624 92.16-158.208C931.84 88.064 885.76 10.24 788.992 10.24c-132.096 0-228.352 130.56-279.04 206.848C459.264 140.8 358.4 10.24 230.912 10.24 132.096 10.24 92.16 88.064 92.16 147.456c0 67.584 35.328 122.368 85.504 158.208H46.08c-22.016 0-46.08 25.088-46.08 44.032v115.712c0 12.8 10.752 23.04 24.064 23.04H465.92V351.744s-2.048-46.592 46.08-46.592 46.08 46.592 46.08 46.592v137.216h441.856c13.312 0 24.064-10.752 24.064-23.04-2.048-0.512-2.048-91.136-2.048-114.176zM347.136 259.072C265.728 259.072 184.32 221.184 184.32 145.408c0-37.888 26.624-46.592 70.144-46.592 85.504 0 134.144 86.528 184.832 158.208h-92.16v2.048z m321.024 2.048h-88.064c50.688-71.68 98.816-160.256 186.88-160.256 44.032 0 70.144 8.192 70.144 46.592-2.048 75.776-87.552 113.664-168.96 113.664z m212.992 294.912h-325.12V1013.76h279.04c50.688 0 92.16-39.936 92.16-90.624v-320.512c2.048-25.088-22.016-46.592-46.08-46.592z" p-id="6443" fill="#e6e6e6"></path></svg>