<?xml version="1.0" standalone="no"?><!DOCTYPE svg PUBLIC "-//W3C//DTD SVG 1.1//EN" "http://www.w3.org/Graphics/SVG/1.1/DTD/svg11.dtd"><svg t="1568618494576" class="icon" viewBox="0 0 1024 1024" version="1.1" xmlns="http://www.w3.org/2000/svg" p-id="7288" xmlns:xlink="http://www.w3.org/1999/xlink" width="200" height="200"><defs><style type="text/css"></style></defs><path d="M343.193568 300.940473a28.850702 28.850702 0 0 0 0-40.908095 29.106698 29.106698 0 0 0-41.061691 0l-83.377762 83.070567 41.061692 40.959294 83.377761-83.121766z m-201.72452-37.170559l41.087291 40.933694 83.377762-83.096167a28.876302 28.876302 0 0 0 0-40.933694 29.106698 29.106698 0 0 0-41.087291 0l-83.377762 83.096167zM217.960529 888.32234c3.327943-0.998383 6.527887-2.380759 9.446237-4.198327l-103.75501-103.396617a36.300174 36.300174 0 0 1-7.935864-11.903794c-2.815951 4.198328-5.017513 8.601452-6.220692 13.516567l-34.098612 144.995898a1.791969 1.791969 0 0 0 0.511991 1.79197c0.486392 0.409593 1.17758 0.58879 1.791969 0.409592l140.28558-41.215289z m771.903484-621.301282l-228.092065 216.009074-276.50083 261.806684-198.780571 188.182353a115.889201 115.889201 0 0 1-47.359183 27.212331l-140.285581 41.215289a77.003472 77.003472 0 0 1-96.817529-91.288025l34.124211-145.021499a116.221995 116.221995 0 0 1 33.228227-57.701404l201.570923-190.895907-213.244322-226.991285a75.723494 75.723494 0 0 1 1.331177-105.598178L221.467668 22.007684a76.286684 76.286684 0 0 1 107.774141 0.511992l1.791969 1.791969 216.444267 230.396025 222.716158-210.786764a116.836385 116.836385 0 0 1 162.761992 2.099164l56.907818 56.575024a115.966 115.966 0 0 1 0 164.425964z m-265.211425 732.710561l-205.76925-219.106621 261.371491-243.963791 199.650956 212.578733a75.723494 75.723494 0 0 1-1.279978 105.598178l-144.381509 147.197461a76.491481 76.491481 0 0 1-107.774141-0.511991l-1.791969-1.791969z" p-id="7289" fill="#e6e6e6"></path></svg>