<?xml version="1.0" standalone="no"?><!DOCTYPE svg PUBLIC "-//W3C//DTD SVG 1.1//EN" "http://www.w3.org/Graphics/SVG/1.1/DTD/svg11.dtd"><svg t="1568952343196" class="icon" viewBox="0 0 1024 1024" version="1.1" xmlns="http://www.w3.org/2000/svg" p-id="5500" xmlns:xlink="http://www.w3.org/1999/xlink" width="200" height="200"><defs><style type="text/css"></style></defs><path d="M62.577778 7.395556C62.577778 11.946667 56.32 21.048889 48.355556 28.444444L34.133333 41.528889v430.08c0 415.288889 0.568889 430.648889 11.377778 444.302222l10.808889 14.222222 186.026667 1.706667c122.311111 1.137778 187.733333 0 191.715555-3.982222 3.982222-3.982222 0-11.946667-13.653333-25.031111-10.808889-10.24-24.462222-28.444444-30.72-39.822223-6.257778-11.377778-13.084444-21.048889-15.36-21.048888-2.844444 0-4.551111-2.844444-4.551111-6.257778 0-3.413333-3.413333-14.222222-7.964445-23.893334-27.306667-62.008889-32.995556-134.257778-15.36-200.248888 9.102222-32.426667 39.822222-97.28 50.062223-106.382223 13.084444-10.808889 8.533333-21.617778-9.102223-21.617777-30.72 0-52.337778-44.373333-31.288889-64.853334 11.946667-12.515556 23.324444-14.222222 104.675556-15.928889 51.2-1.706667 76.8-4.551111 91.022222-11.377777 33.564444-15.928889 100.124444-22.755556 148.48-15.36 23.324444 3.413333 48.924444 9.671111 57.457778 14.222222s20.48 7.964444 27.306667 7.964444c6.257778 0 11.377778 2.275556 11.377777 5.12s6.826667 7.395556 15.928889 10.808889c8.533333 2.844444 30.151111 18.773333 48.355556 35.271111 23.324444 21.048889 32.995556 27.306667 35.271111 21.617778 1.706667-4.551111 2.275556-104.675556 1.706667-222.435556L896 34.133333l-12.515556-8.533333c-7.395556-5.12-13.084444-13.084444-13.084444-17.635556C870.4 1.137778 814.648889 0 466.488889 0 134.826667 0 62.577778 1.137778 62.577778 7.395556z m208.213333 179.2c9.671111 12.515556 9.671111 35.271111 0 47.786666s-52.337778 18.773333-73.386667 10.808889c-22.186667-8.533333-31.288889-31.288889-20.48-50.631111 4.551111-7.964444 14.222222-17.066667 22.186667-19.342222 22.186667-6.257778 63.146667 0 71.68 11.377778z m473.315556 0c10.24 13.653333 8.533333 39.253333-4.551111 52.337777-10.808889 10.808889-18.773333 11.377778-183.182223 10.808889-95.004444-0.568889-178.631111-2.275556-186.595555-4.551111-29.582222-7.964444-29.582222-61.44 0-69.404444 7.964444-2.275556 93.297778-2.844444 190.577778-1.137778 151.324444 2.844444 177.493333 4.551111 183.751111 11.946667zM267.946667 421.546667c15.36 16.497778 15.928889 18.204444 7.964444 34.133333-4.551111 8.533333-13.653333 18.773333-19.342222 22.186667-17.066667 9.102222-53.475556 6.826667-67.128889-4.551111C154.737778 446.008889 176.355556 403.911111 225.28 403.911111c22.186667 0 29.013333 2.844444 42.666667 17.635556z" p-id="5501" fill="#e6e6e6"></path><path d="M600.177778 453.404444c-6.257778 1.706667-13.653333 5.12-17.066667 7.395556-2.844444 2.275556-14.222222 6.257778-23.893333 8.533333-10.24 1.706667-18.773333 5.688889-18.773334 8.533334 0 2.275556-5.688889 5.688889-13.084444 7.395555-21.048889 5.688889-71.111111 60.302222-88.746667 97.28-23.893333 50.062222-31.857778 100.124444-23.324444 146.204445 15.36 81.92 63.715556 145.066667 137.671111 180.906666 35.84 17.066667 42.097778 18.204444 100.124444 18.204445 57.457778 0 64.853333-1.137778 98.986667-17.066667 20.48-9.671111 40.96-17.635556 46.08-17.635555 5.12 0 28.444444 21.617778 52.906667 47.786666 47.786667 52.906667 67.697778 65.422222 87.04 54.613334 8.533333-3.982222 11.946667-11.377778 11.946666-24.462223 0-15.36-8.533333-26.168889-51.2-69.404444-34.133333-34.133333-51.2-55.751111-51.2-64.284445 0-6.826667 1.706667-12.515556 4.551112-12.515555 4.551111 0 23.893333-41.528889 35.271111-76.8 22.755556-68.266667-5.688889-166.684444-64.284445-226.417778-46.648889-47.786667-106.951111-72.817778-171.804444-71.68-21.617778 0.568889-44.942222 2.275556-51.2 3.413333z m138.808889 80.782223c15.928889 9.671111 36.408889 25.6 46.08 35.84 62.008889 67.697778 61.44 175.786667-0.568889 242.346666-60.871111 65.422222-157.013333 75.662222-232.675556 25.031111-85.902222-57.457778-104.106667-165.546667-42.097778-251.448888 39.822222-55.751111 84.764444-75.662222 159.857778-71.111112 31.857778 2.275556 46.648889 6.257778 69.404445 19.342223z" p-id="5502" fill="#e6e6e6"></path></svg>