<?xml version="1.0" standalone="no"?><!DOCTYPE svg PUBLIC "-//W3C//DTD SVG 1.1//EN" "http://www.w3.org/Graphics/SVG/1.1/DTD/svg11.dtd"><svg t="1568600648035" class="icon" viewBox="0 0 1024 1024" version="1.1" xmlns="http://www.w3.org/2000/svg" p-id="10114" xmlns:xlink="http://www.w3.org/1999/xlink" width="200" height="200"><defs><style type="text/css"></style></defs><path d="M512 919.296c224.64 0 407.296-182.784 407.296-407.296 0-224.64-182.656-407.296-407.296-407.296S104.704 287.36 104.704 512C104.704 736.512 287.36 919.296 512 919.296M512 960.064c-247.488 0-448-200.704-448-448.064 0-247.488 200.512-448.064 448-448.064 247.424 0 448 200.576 448 448.064C960 759.36 759.424 960.064 512 960.064L512 960.064 512 960.064z" p-id="10115" fill="#707070"></path><path d="M768 512c0-141.44-114.624-256.064-256.128-256.064-141.376 0-256 114.624-256 256.064 0 141.376 114.624 256.064 256 256.064C653.376 768.064 768 653.376 768 512L768 512 768 512 768 512zM290.816 512c0-23.552 3.84-46.272 10.624-67.712C409.472 441.856 505.6 398.656 570.88 331.584c38.4 39.168 86.912 70.528 142.656 89.984C726.016 449.216 733.12 479.744 733.12 512c0 121.92-99.264 221.12-221.248 221.12C390.016 733.12 290.816 633.856 290.816 512L290.816 512 290.816 512 290.816 512zM428.992 444.608c-24.896 0-44.864 20.096-44.864 44.864 0 24.896 20.032 44.928 44.864 44.928 19.008 0 35.136-11.904 41.472-28.544L437.952 489.472l32.576-16.256C464.128 456.576 448 444.608 428.992 444.608L428.992 444.608 428.992 444.608 428.992 444.608zM598.208 534.592c18.944 0 35.136-11.968 41.6-28.608L607.104 489.664l32.704-16.256C633.344 456.704 617.152 444.8 598.208 444.8c-24.832 0-44.864 20.096-44.864 44.864C553.344 514.56 573.376 534.592 598.208 534.592L598.208 534.592 598.208 534.592 598.208 534.592zM818.368 467.52c-15.744-157.824-147.2-281.344-306.496-281.344-159.104 0-290.56 123.584-306.368 281.344-11.328 4.096-19.456 14.784-19.456 27.52l0 57.152c0 16.384 13.312 29.696 29.696 29.696 16.512 0 29.76-13.312 29.76-29.696L245.504 494.976c0-11.392-6.656-20.992-16.192-25.984 14.912-145.6 135.936-259.648 282.56-259.648 146.752 0 267.776 113.984 282.688 259.648-9.536 4.928-16.192 14.656-16.192 25.984l0 57.152c0 12.48 7.744 23.04 18.752 27.52-27.264 116.224-122.88 206.208-241.984 225.088-5.632-7.872-17.6-13.376-31.488-13.376-19.328 0-35.008 10.368-35.008 23.232s15.68 23.296 35.008 23.296c18.496 0 33.472-9.792 34.624-21.888 123.392-20.16 222.336-113.728 250.304-234.304 16.064-0.256 29.184-13.376 29.184-29.504L837.76 494.976C837.76 482.304 829.632 471.616 818.368 467.52L818.368 467.52 818.368 467.52 818.368 467.52z" p-id="10116" fill="#707070"></path></svg>