<?xml version="1.0" standalone="no"?><!DOCTYPE svg PUBLIC "-//W3C//DTD SVG 1.1//EN" "http://www.w3.org/Graphics/SVG/1.1/DTD/svg11.dtd"><svg t="1552967223092" class="icon" style="" viewBox="0 0 1024 1024" version="1.1" xmlns="http://www.w3.org/2000/svg" p-id="1354" xmlns:xlink="http://www.w3.org/1999/xlink" width="128" height="128"><defs><style type="text/css"></style></defs><path d="M298.496 610.816c-28.672-5.632-57.856 9.728-68.608 36.864-11.264 27.136-1.536 58.368 22.528 74.752 24.576 16.384 56.832 13.312 77.824-7.68 11.776-11.264 17.92-27.136 17.92-43.52 0-29.184-20.48-54.272-49.664-60.416z" p-id="1355"></path><path d="M858.112 0H165.888C74.24 0 0 74.24 0 165.888v692.224C0 949.76 74.24 1024 165.888 1024h692.224c91.648 0 165.888-74.24 165.888-165.888V165.888C1024 74.24 949.76 0 858.112 0zM286.72 814.592c-79.36 0-143.36-64-143.36-143.36s64-143.36 143.36-143.36 143.36 64 143.36 143.36-64 143.36-143.36 143.36zM438.272 290.816l-163.84 163.84c-7.68 7.68-17.92 11.776-29.184 11.776-10.752 0-21.504-4.096-29.184-11.776l-81.92-81.92c-10.24-10.24-14.336-25.6-10.752-39.424 3.584-14.336 14.848-25.088 29.184-29.184 14.336-3.584 29.184 0.512 39.424 10.752L245.76 367.616l135.168-135.168c15.872-15.872 41.984-15.872 57.856 0 15.36 16.384 15.36 41.984-0.512 58.368z m421.888 421.376h-327.68c-22.528 0-40.96-18.432-40.96-40.96s18.432-40.96 40.96-40.96h327.68c22.528 0 40.96 18.432 40.96 40.96s-18.432 40.96-40.96 40.96z m0-327.68h-327.68c-22.528 0-40.96-18.432-40.96-40.96s18.432-40.96 40.96-40.96h327.68c22.528 0 40.96 18.432 40.96 40.96s-18.432 40.96-40.96 40.96z" p-id="1356"></path></svg>