<?xml version="1.0" standalone="no"?><!DOCTYPE svg PUBLIC "-//W3C//DTD SVG 1.1//EN" "http://www.w3.org/Graphics/SVG/1.1/DTD/svg11.dtd"><svg t="1573107937972" class="icon" viewBox="0 0 1024 1024" version="1.1" xmlns="http://www.w3.org/2000/svg" p-id="8688" width="400" height="400" data-spm-anchor-id="a313x.7781069.0.i13" xmlns:xlink="http://www.w3.org/1999/xlink"><defs><style type="text/css"></style></defs><path d="M815.258829 53.185938 202.939594 53.185938c-85.401669 0-154.637673 69.232392-154.637673 154.634061l0 610.263757c0 85.405281 69.239617 154.637673 154.637673 154.637673l612.319235 0c85.405281 0 154.641286-69.232392 154.641286-154.637673L969.900115 207.819999C969.896502 122.41833 900.660498 53.185938 815.258829 53.185938L815.258829 53.185938zM227.085136 452.125631l168.802046 0c16.2921-21.342289 30.261401-44.039243 41.915129-68.098086L252.115725 384.027545 252.115725 344.442439l203.138278 0c14.355832-36.861327 26.190182-77.215882 35.506662-121.067278l46.56795 9.890858c-10.476073 39.971637-21.736045 77.028035-33.758242 111.172808L762.585857 344.438827l0 39.585106-274.151602 0c-10.468848 23.6687-23.087097 46.376491-37.82946 68.098086l341.671698 0 0 39.581493-158.322361 0c42.294435 45.791276 97.394966 75.669758 165.308818 89.642672-10.869829 13.969301-21.537361 28.711665-32.013434 44.237927-33.371711-11.252747-63.640337-25.807264-90.805877-43.659937-5.429496 46.177807-10.671145 88.085711-15.714109 125.727324-8.149662 53.157039-38.223216 79.549518-90.224275 79.159374-17.072386 0-48.887136-0.386531-95.455086-1.166818-2.716554-15.519038-6.794998-31.424606-12.224493-47.723931 34.534916 2.712942 65.963135 4.074831 94.295493 4.074831 34.14116 0 53.550795-13.965689 58.207228-41.911516 3.493228-21.732433 7.369375-51.809599 11.639278-90.224275l-173.454867 0c-7.372988 52.004671-22.895638 91.000949-46.560725 116.999672-25.615804 29.491951-72.761745 54.714-141.441434 75.662533-9.31648-16.685855-17.852673-30.850228-25.612192-42.489507 64.03048-16.299324 107.878264-38.028145 131.550576-65.190073 18.622123-20.55839 30.647932-48.890748 36.084652-84.982626L327.207493 609.859164l0-30.268626c-24.445374 18.242817-50.834241 35.315203-79.159374 51.224384-8.153275-13.189015-17.852673-26.193795-29.10542-38.999891 56.650267-27.544847 104.189963-60.916558 142.611864-100.11152L227.085136 491.703512 227.085136 452.125631zM296.353652 258.885436l33.176639-26.775397c27.945828 25.998723 52.976417 51.220772 75.091768 75.666146l-37.255083 30.846616C345.638156 312.237546 321.965844 285.660833 296.353652 258.885436zM338.843159 570.288508l320.13795 0c-29.495564-21.72882-55.100531-47.92984-76.832964-78.581384l-161.815589 0C397.050387 520.039483 369.888459 546.229665 338.843159 570.288508zM604.263496 315.925846c25.995111-26.775397 48.699289-54.909072 68.101699-84.401023l40.166708 25.030589c-22.122576 29.491951-46.56795 58.015769-73.343348 85.564228L604.263496 315.925846z" p-id="8689" fill="#dbdbdb"></path></svg>